<svg width="48" height="48" viewBox="0 0 48 48" fill="none" xmlns="http://www.w3.org/2000/svg">
<rect width="48" height="47.1025" rx="8" fill="white"/>
<path d="M7.82354 6.11061C7.93046 6.09725 8.03737 6.04379 8.14429 6.07052C10.737 6.73874 12.8752 8.07517 14.3854 10.3204C15.2541 11.6167 15.7619 13.0734 16.096 14.5836C16.6573 17.0827 16.644 19.6219 16.6039 22.1745C16.5771 23.7515 16.5371 25.3151 16.497 26.8921C16.4702 27.9746 16.644 29.0036 17.1919 29.9391C19.0495 33.0797 23.2727 33.6945 25.8787 30.9415C26.8409 29.9258 27.322 28.6963 27.322 27.3064C27.322 24.1257 27.3087 20.9583 27.3087 17.7776C27.3087 17.6039 27.3087 17.4302 27.3087 17.2163C28.6184 17.5905 29.741 18.1919 30.6096 19.221C31.1442 18.6329 31.7322 18.1919 32.3737 17.8445C33.4429 17.2698 34.659 17.0025 35.942 16.8956C35.9554 16.9758 35.9687 17.0159 35.9687 17.056C35.9687 20.7044 36.0355 24.3529 35.942 28.0013C35.8484 31.7166 34.3383 34.8438 31.6521 37.4098C29.7543 39.2139 27.5225 40.4167 24.9699 40.9914C23.0722 41.4191 21.1611 41.4191 19.25 41.0582C16.3633 40.4969 13.9043 39.1471 11.8328 37.0623C9.9351 35.1512 8.69222 32.8659 8.14429 30.2198C7.98392 29.458 7.94381 28.6829 7.86362 27.9211C7.85026 27.7741 7.83691 27.6137 7.81018 27.4667C7.82354 20.3703 7.82354 13.2471 7.82354 6.11061Z" fill="#86599C"/>
<path d="M38.1605 12.1512C37.6393 12.3651 37.1582 12.5522 36.6904 12.7526C36.6236 12.7794 36.5835 12.9264 36.5835 13.0066C36.5835 13.8886 36.5835 14.7706 36.5835 15.6527C36.5835 15.773 36.5835 15.9066 36.5835 16.067C36.2761 16.067 35.9955 16.0536 35.7282 16.067C33.924 16.1873 32.2802 16.7218 30.8368 17.8578C30.6765 17.9781 30.5963 17.9914 30.4226 17.8712C29.2599 16.9624 27.9502 16.4011 26.4935 16.2006C25.9856 16.1338 25.4778 16.1071 24.9566 16.067C24.863 16.0536 24.7695 16.0536 24.6492 16.0403C24.6492 15.2384 24.6492 14.4633 24.6492 13.6881C24.6492 13.3941 24.7427 13.0467 24.6091 12.8328C24.4755 12.6324 24.1146 12.5789 23.8473 12.4586C22.2971 11.8171 20.7468 11.1757 19.1966 10.5475C19.1431 10.5208 19.0896 10.4941 18.9961 10.454C19.4772 10.2535 19.9049 10.0798 20.3325 9.90605C23.7003 8.52953 27.0548 7.15301 30.4226 5.78985C30.5428 5.73639 30.7166 5.73639 30.8368 5.78985C33.2023 6.75208 35.5678 7.71431 37.9467 8.6899C39.2697 9.22447 40.5794 9.77241 41.9025 10.307C41.996 10.3471 42.0896 10.3872 42.2499 10.454C42.0228 10.5609 41.849 10.6411 41.6619 10.7213C40.8066 11.0687 39.9379 11.4296 39.0826 11.777C38.8822 11.8572 38.802 11.9641 38.8153 12.178C38.8287 12.8729 38.8287 13.5545 38.8153 14.2494C38.8153 14.4365 38.8688 14.5435 39.0158 14.6637C39.4435 14.9978 39.4702 15.5057 39.1227 15.9066C39.0425 16.0002 38.9891 16.1873 39.0158 16.3075C39.1762 17.1896 39.3499 18.0583 39.537 18.9269C39.5771 19.0873 39.5236 19.1541 39.39 19.2076C38.8153 19.4481 38.2407 19.4348 37.666 19.221C37.5056 19.1541 37.4655 19.0739 37.5056 18.8868C37.6927 18.0315 37.8531 17.1762 38.0135 16.3209C38.0536 16.1338 38.0402 16.0002 37.8932 15.8532C37.5324 15.479 37.5858 14.9444 38.0001 14.637C38.1471 14.5301 38.2006 14.4098 38.2006 14.2227C38.1872 13.6748 38.2006 13.1135 38.1872 12.5655C38.2006 12.4453 38.1738 12.3116 38.1605 12.1512Z" fill="#380E51"/>
<path d="M31.7324 18.2589L31.3448 30.5139C31.3448 30.5139 31.572 40.7777 21.8962 41.3523C22.0165 41.2989 22.3373 41.3523 22.4709 41.3523C22.9921 41.3256 23.5267 41.2722 24.0345 41.192C25.7452 40.9113 27.4157 40.3367 28.9259 39.468C31.278 38.1315 33.2158 36.1002 34.4453 33.6812C35.5946 31.436 35.9287 29.1107 35.9287 26.6249C35.9421 23.3907 35.9287 20.1566 35.9154 16.9224C35.9287 16.9224 33.0421 17.1496 31.7324 18.2589Z" fill="#65377F"/>
<path d="M7.8236 6.11066C7.74342 11.884 7.94388 17.644 7.83696 23.4174C7.78351 25.97 7.38258 29.6184 8.90611 31.8235C10.3227 33.8816 12.6748 35.3651 15.0938 35.913C17.7265 36.501 20.5731 36.0066 22.8584 34.5899C21.3349 35.2181 19.5708 34.8706 18.0606 34.2157C16.4168 33.5074 14.9067 32.4249 13.891 30.9682C12.4209 28.8433 12.1002 26.1437 12.0467 23.551C11.9532 19.5551 12.3675 15.479 11.4453 11.59C10.9375 9.41164 9.77479 7.20653 7.8236 6.11066Z" fill="#3A0F56"/>
<path d="M7.82361 6.11066C7.82361 6.11066 11.3651 7.46045 11.9264 14.6103C11.9264 14.6103 12.1804 18.2187 12.0601 19.0874C11.9398 19.9561 11.285 26.7585 13.2629 30.0728C14.773 32.5987 18.6754 35.8462 22.8584 34.5899C27.0415 33.3337 27.2954 27.9345 27.2954 27.9345C27.2954 27.9345 27.1216 30.1129 24.97 31.7166C23.1123 33.1065 20.4261 32.8927 18.6353 31.5162C18.0072 31.035 17.4726 30.447 17.1118 29.7387C16.6307 28.7898 16.5104 27.7073 16.5104 26.6649C16.497 25.5557 16.5638 24.4598 16.6574 23.3506C16.7109 22.7492 16.6975 22.1344 16.6841 21.533C16.6574 20.3436 16.6039 19.1542 16.5238 17.9781C16.4302 16.5615 16.2832 15.1315 15.9357 13.7417C15.3611 11.4831 14.0781 9.35818 12.2205 7.9282C10.9509 6.95261 9.41396 6.33785 7.82361 6.11066Z" fill="url(#paint0_linear_706_3579)"/>
<defs>
<linearGradient id="paint0_linear_706_3579" x1="7.81858" y1="20.4947" x2="27.2948" y2="20.4947" gradientUnits="userSpaceOnUse">
<stop stop-color="#3A0F56"/>
<stop offset="1" stop-color="#86599C"/>
</linearGradient>
</defs>
</svg>
