<svg width="28" height="28" viewBox="0 0 28 28" fill="none" xmlns="http://www.w3.org/2000/svg">
<g clip-path="url(#clip0_358_985)">
<path d="M9.625 14.875C10.4903 14.875 11.3362 15.1316 12.0556 15.6123C12.7751 16.0931 13.3358 16.7763 13.667 17.5758C13.9981 18.3752 14.0847 19.2549 13.9159 20.1035C13.7471 20.9522 13.3304 21.7317 12.7186 22.3436C12.1067 22.9554 11.3272 23.3721 10.4785 23.5409C9.62985 23.7097 8.75019 23.6231 7.95076 23.292C7.15133 22.9608 6.46805 22.4001 5.98732 21.6806C5.50659 20.9612 5.25 20.1153 5.25 19.25V18.5139" stroke="#8D64AA" stroke-width="1.5" stroke-linecap="round" stroke-linejoin="round"/>
<path d="M18.375 14.875C17.5097 14.875 16.6638 15.1316 15.9444 15.6123C15.2249 16.0931 14.6642 16.7763 14.333 17.5758C14.0019 18.3752 13.9153 19.2549 14.0841 20.1035C14.2529 20.9522 14.6696 21.7317 15.2814 22.3436C15.8933 22.9554 16.6728 23.3721 17.5215 23.5409C18.3701 23.7097 19.2498 23.6231 20.0492 23.292C20.8487 22.9608 21.532 22.4001 22.0127 21.6806C22.4934 20.9612 22.75 20.1153 22.75 19.25V18.5139" stroke="#8D64AA" stroke-width="1.5" stroke-linecap="round" stroke-linejoin="round"/>
<path d="M7.87495 18.8125H6.99995C5.76067 18.8136 4.56094 18.3763 3.61309 17.5779C2.66524 16.7795 2.03037 15.6716 1.82083 14.4501C1.6113 13.2287 1.84061 11.9725 2.46819 10.9039C3.09577 9.83525 4.08115 9.02308 5.24996 8.61109V7.875C5.24996 6.71468 5.71089 5.60188 6.53136 4.78141C7.35183 3.96094 8.46463 3.5 9.62495 3.5C10.7853 3.5 11.8981 3.96094 12.7185 4.78141C13.539 5.60188 14 6.71468 14 7.875V19.25" stroke="#8D64AA" stroke-width="1.5" stroke-linecap="round" stroke-linejoin="round"/>
<path d="M20.125 18.8125H21C22.2393 18.8136 23.439 18.3763 24.3869 17.5779C25.3347 16.7795 25.9696 15.6716 26.1791 14.4501C26.3887 13.2287 26.1593 11.9725 25.5318 10.9039C24.9042 9.83525 23.9188 9.02308 22.75 8.61109V7.875C22.75 6.71468 22.2891 5.60188 21.4686 4.78141C20.6481 3.96094 19.5353 3.5 18.375 3.5C17.2147 3.5 16.1019 3.96094 15.2814 4.78141C14.4609 5.60188 14 6.71468 14 7.875" stroke="#8D64AA" stroke-width="1.5" stroke-linecap="round" stroke-linejoin="round"/>
<path d="M21.875 12.25H21.4375C20.6253 12.25 19.8463 11.9273 19.272 11.353C18.6977 10.7787 18.375 9.99973 18.375 9.1875V8.75" stroke="#8D64AA" stroke-width="1.5" stroke-linecap="round" stroke-linejoin="round"/>
<path d="M6.125 12.25H6.5625C7.37473 12.25 8.15368 11.9273 8.72801 11.353C9.30234 10.7787 9.625 9.99973 9.625 9.1875V8.75" stroke="#8D64AA" stroke-width="1.5" stroke-linecap="round" stroke-linejoin="round"/>
</g>
<defs>
<clipPath id="clip0_358_985">
<rect width="28" height="28" fill="white"/>
</clipPath>
</defs>
</svg>
