<svg width="28" height="28" viewBox="0 0 28 28" fill="none" xmlns="http://www.w3.org/2000/svg">
<g clip-path="url(#clip0_358_996)">
<path d="M14 18.375C16.4162 18.375 18.375 16.4162 18.375 14C18.375 11.5838 16.4162 9.625 14 9.625C11.5838 9.625 9.625 11.5838 9.625 14C9.625 16.4162 11.5838 18.375 14 18.375Z" stroke="#8D64AA" stroke-width="1.5" stroke-linecap="round" stroke-linejoin="round"/>
<path d="M14.2243 22.5433C14.0777 22.5433 13.9301 22.5433 13.7868 22.5433L10.2813 24.5C8.91667 24.041 7.65092 23.3285 6.55053 22.4L6.5374 18.4625C6.45975 18.34 6.38647 18.2164 6.31865 18.0895L2.83287 16.1044C2.55831 14.7156 2.55831 13.2866 2.83287 11.8978L6.31537 9.91813C6.38647 9.79234 6.45975 9.66766 6.53412 9.54516L6.55162 5.60766C7.65102 4.67648 8.91644 3.96139 10.2813 3.5L13.7813 5.45672C13.9279 5.45672 14.0755 5.45672 14.2188 5.45672L17.7188 3.5C19.0835 3.95903 20.3492 4.6715 21.4496 5.6L21.4627 9.5375C21.5404 9.66 21.6137 9.78359 21.6815 9.91047L25.1651 11.8945C25.4396 13.2833 25.4396 14.7123 25.1651 16.1011L21.6826 18.0808C21.6115 18.2066 21.5382 18.3313 21.4638 18.4538L21.4463 22.3913C20.3477 23.3226 19.083 24.038 17.7188 24.5L14.2243 22.5433Z" stroke="#8D64AA" stroke-width="1.5" stroke-linecap="round" stroke-linejoin="round"/>
</g>
<defs>
<clipPath id="clip0_358_996">
<rect width="28" height="28" fill="white"/>
</clipPath>
</defs>
</svg>
