<svg width="28" height="28" viewBox="0 0 28 28" fill="none" xmlns="http://www.w3.org/2000/svg">
<path d="M14 24.5L23.7738 14.5862C24.7995 13.5605 25.3758 12.1693 25.3758 10.7187C25.3758 9.26814 24.7995 7.87696 23.7738 6.85124C22.7481 5.82551 21.3569 5.24927 19.9063 5.24927C18.4557 5.24927 17.0645 5.82551 16.0388 6.85124L14 8.74999L11.9613 6.85124C10.9356 5.82551 9.54439 5.24927 8.0938 5.24927C6.64321 5.24927 5.25202 5.82551 4.2263 6.85124C3.20057 7.87696 2.62433 9.26814 2.62433 10.7187C2.62433 12.1693 3.20057 13.5605 4.2263 14.5862L14 24.5Z" stroke="#8D64AA" stroke-width="1.5" stroke-linecap="round" stroke-linejoin="round"/>
</svg>
