<svg width="42" height="42" viewBox="0 0 42 42" fill="none" xmlns="http://www.w3.org/2000/svg">
<path d="M34.125 27.8906C35.0311 27.8906 35.7656 27.1561 35.7656 26.25C35.7656 25.3439 35.0311 24.6094 34.125 24.6094C33.2189 24.6094 32.4844 25.3439 32.4844 26.25C32.4844 27.1561 33.2189 27.8906 34.125 27.8906Z" fill="white"/>
<path d="M34.125 31.5C37.0245 31.5 39.375 29.1495 39.375 26.25C39.375 23.3505 37.0245 21 34.125 21C31.2255 21 28.875 23.3505 28.875 26.25C28.875 29.1495 31.2255 31.5 34.125 31.5Z" stroke="white" stroke-width="1.5" stroke-linecap="round" stroke-linejoin="round"/>
<path d="M17.0625 23.625V31.5C17.0625 33.2405 17.7539 34.9097 18.9846 36.1404C20.2153 37.3711 21.8845 38.0625 23.625 38.0625H27.5625C29.303 38.0625 30.9722 37.3711 32.2029 36.1404C33.4336 34.9097 34.125 33.2405 34.125 31.5" stroke="white" stroke-width="1.5" stroke-linecap="round" stroke-linejoin="round"/>
<path d="M22.3125 6.5625H26.25V14.3013C26.25 19.3495 22.2337 23.5594 17.1839 23.625C15.9672 23.6411 14.7594 23.4153 13.6307 22.9608C12.502 22.5063 11.4748 21.8321 10.6087 20.9773C9.7427 20.1226 9.05507 19.1043 8.58579 17.9817C8.1165 16.859 7.87489 15.6543 7.875 14.4375V6.5625H11.8125" stroke="white" stroke-width="1.5" stroke-linecap="round" stroke-linejoin="round"/>
</svg>
