<svg width="48" height="48" viewBox="0 0 48 48" fill="none" xmlns="http://www.w3.org/2000/svg">
<rect width="48" height="48" rx="10.6667" fill="#5F457F"/>
<path d="M8.40002 32.3998H19.2C20.4731 32.3998 21.694 32.9055 22.5941 33.8057C23.4943 34.7059 24 35.9268 24 37.1998V15.5998C24 14.3268 23.4943 13.1059 22.5941 12.2057C21.694 11.3055 20.4731 10.7998 19.2 10.7998H8.40002V32.3998Z" stroke="white" stroke-width="1.2" stroke-linecap="round" stroke-linejoin="round"/>
<path d="M24 15.5998C24 14.3268 24.5057 13.1059 25.4059 12.2057C26.3061 11.3055 27.527 10.7998 28.8 10.7998H39.6V32.3998H28.8C27.527 32.3998 26.3061 32.9055 25.4059 33.8057C24.5057 34.7059 24 35.9268 24 37.1998" stroke="white" stroke-width="1.2" stroke-linecap="round" stroke-linejoin="round"/>
</svg>
