<svg width="42" height="42" viewBox="0 0 42 42" fill="none" xmlns="http://www.w3.org/2000/svg">
<path d="M21 27.5625C24.6244 27.5625 27.5625 24.6244 27.5625 21C27.5625 17.3756 24.6244 14.4375 21 14.4375C17.3756 14.4375 14.4375 17.3756 14.4375 21C14.4375 24.6244 17.3756 27.5625 21 27.5625Z" stroke="white" stroke-width="1.5" stroke-linecap="round" stroke-linejoin="round"/>
<path d="M6.79713 29.2179C6.07193 27.9688 5.51634 26.6287 5.14502 25.2328L7.89799 21.7875C7.86682 21.2608 7.86682 20.7327 7.89799 20.206L5.14666 16.7606C5.51734 15.3646 6.0718 14.024 6.79549 12.7739L11.1776 12.2817C11.5275 11.8875 11.9006 11.5144 12.2949 11.1645L12.7871 6.784C14.0353 6.06376 15.3737 5.51261 16.7672 5.14502L20.2125 7.89799C20.7392 7.86682 21.2674 7.86682 21.7941 7.89799L25.2394 5.14666C26.6354 5.51734 27.9761 6.0718 29.2261 6.79549L29.7183 11.1776C30.1126 11.5275 30.4856 11.9006 30.8356 12.2949L35.216 12.7871C35.9412 14.0362 36.4968 15.3763 36.8681 16.7721L34.1152 20.2174C34.1463 20.7442 34.1463 21.2723 34.1152 21.799L36.8665 25.2443C36.4984 26.64 35.9467 27.9806 35.2259 29.231L30.8438 29.7232C30.4938 30.1175 30.1208 30.4906 29.7265 30.8405L29.2343 35.221C27.9852 35.9462 26.6451 36.5017 25.2492 36.8731L21.8039 34.1201C21.2772 34.1513 20.7491 34.1513 20.2224 34.1201L16.7771 36.8714C15.3814 36.5033 14.0408 35.9516 12.7903 35.2308L12.2981 30.8487C11.9039 30.4988 11.5308 30.1257 11.1809 29.7314L6.79713 29.2179Z" stroke="white" stroke-width="1.5" stroke-linecap="round" stroke-linejoin="round"/>
</svg>
