<svg width="80" height="83" viewBox="0 0 80 83" fill="none" xmlns="http://www.w3.org/2000/svg">
<path d="M0.170692 0.836706C0.418609 0.805717 0.666533 0.681759 0.914451 0.743739C6.92644 2.29322 11.8848 5.39219 15.3866 10.5984C17.4009 13.6044 18.5785 16.9823 19.3533 20.4841C20.6549 26.2792 20.6238 32.1672 20.5309 38.0863C20.4689 41.743 20.3759 45.3688 20.283 49.0256C20.221 51.5358 20.6238 53.922 21.8944 56.0912C26.202 63.3738 35.9947 64.7993 42.0377 58.4155C44.2689 56.0602 45.3846 53.2092 45.3846 49.9863C45.3846 42.6107 45.3536 35.2662 45.3536 27.8907C45.3536 27.4878 45.3536 27.0849 45.3536 26.5891C48.3906 27.4568 50.9937 28.8513 53.008 31.2375C54.2476 29.874 55.6111 28.8513 57.0987 28.0456C59.5778 26.7131 62.3979 26.0933 65.3729 25.8454C65.4039 26.0313 65.4349 26.1243 65.4349 26.2172C65.4349 34.6774 65.5898 43.1376 65.3729 51.5977C65.156 60.2129 61.6541 67.4644 55.4252 73.4144C51.0247 77.598 45.8494 80.3871 39.9304 81.7197C35.5299 82.7113 31.0984 82.7113 26.6668 81.8746C19.9731 80.5731 14.271 77.4431 9.46758 72.6087C5.06706 68.1772 2.18503 62.878 0.914451 56.742C0.542575 54.9756 0.449576 53.1782 0.263638 51.4118C0.232648 51.0709 0.201689 50.699 0.139709 50.3582C0.170699 33.9027 0.170692 17.3852 0.170692 0.836706Z" fill="#86599C"/>
<path d="M70.5172 14.844C69.3086 15.3399 68.1929 15.7737 67.1083 16.2386C66.9534 16.3006 66.8604 16.6414 66.8604 16.8274C66.8604 18.8727 66.8604 20.918 66.8604 22.9633C66.8604 23.2422 66.8604 23.5521 66.8604 23.924C66.1476 23.924 65.4968 23.893 64.877 23.924C60.6934 24.2029 56.8817 25.4425 53.5348 28.0766C53.1629 28.3555 52.977 28.3865 52.5741 28.1076C49.878 26.0003 46.8411 24.6987 43.4632 24.2339C42.2856 24.079 41.108 24.017 39.8994 23.924C39.6824 23.893 39.4655 23.893 39.1866 23.862C39.1866 22.0026 39.1866 20.2052 39.1866 18.4079C39.1866 17.7261 39.4036 16.9203 39.0937 16.4245C38.7838 15.9597 37.9471 15.8357 37.3273 15.5568C33.7325 14.0693 30.1376 12.5818 26.5428 11.1253C26.4189 11.0633 26.2949 11.0013 26.078 10.9084C27.1936 10.4435 28.1853 10.0406 29.177 9.63778C36.9864 6.44585 44.7648 3.25391 52.5741 0.0929689C52.8531 -0.0309896 53.2559 -0.0309896 53.5348 0.0929689C59.02 2.32422 64.5052 4.55548 70.0213 6.81772C73.0893 8.05731 76.1263 9.32788 79.1943 10.5675C79.4112 10.6604 79.6281 10.7534 80 10.9084C79.4732 11.1563 79.0703 11.3422 78.6364 11.5282C76.6531 12.3339 74.6388 13.1706 72.6555 13.9763C72.1906 14.1623 72.0047 14.4102 72.0357 14.906C72.0667 16.5175 72.0667 18.098 72.0357 19.7094C72.0357 20.1433 72.1596 20.3912 72.5005 20.6701C73.4922 21.4448 73.5541 22.6224 72.7484 23.5521C72.5625 23.7691 72.4385 24.2029 72.5005 24.4818C72.8724 26.5271 73.2752 28.5415 73.7091 30.5558C73.802 30.9277 73.6781 31.0826 73.3682 31.2066C72.0356 31.7644 70.7031 31.7334 69.3705 31.2376C68.9986 31.0826 68.9057 30.8967 68.9987 30.4628C69.4325 28.4795 69.8044 26.4961 70.1763 24.5128C70.2692 24.079 70.2383 23.7691 69.8974 23.4282C69.0606 22.5605 69.1846 21.3209 70.1453 20.6081C70.4861 20.3602 70.6101 20.0813 70.6101 19.6474C70.5791 18.3769 70.6101 17.0753 70.5791 15.8047C70.6101 15.5258 70.5481 15.2159 70.5172 14.844Z" fill="#380E51"/>
<path d="M55.6111 29.0064L54.7124 57.4239C54.7124 57.4239 55.2392 81.224 32.8027 82.5565C33.0816 82.4326 33.8254 82.5565 34.1353 82.5565C35.3439 82.4946 36.5835 82.3706 37.7611 82.1847C41.7278 81.5339 45.6015 80.2013 49.1033 78.187C54.5575 75.088 59.051 70.3776 61.902 64.7685C64.5671 59.5622 65.3419 54.17 65.3419 48.406C65.3728 40.9065 65.3419 33.407 65.3109 25.9075C65.3419 25.9075 58.6481 26.4343 55.6111 29.0064Z" fill="#65377F"/>
<path d="M0.170674 0.836792C-0.0152638 14.2243 0.449573 27.5809 0.201656 40.9684C0.0776976 46.8874 -0.851991 55.3476 2.68083 60.4609C5.96573 65.2333 11.4199 68.6731 17.029 69.9437C23.134 71.3072 29.7348 70.1606 35.034 66.8757C31.5012 68.3322 27.4106 67.5265 23.9087 66.008C20.097 64.3656 16.5952 61.8554 14.24 58.4775C10.8311 53.5502 10.0874 47.2903 9.96339 41.2783C9.74647 32.0124 10.7071 22.5605 8.56886 13.5425C7.39125 8.49124 4.69516 3.37794 0.170674 0.836792Z" fill="#3A0F56"/>
<path d="M0.170715 0.836792C0.170715 0.836792 8.38296 3.96675 9.68452 20.5462C9.68452 20.5462 10.2733 28.9134 9.99442 30.9277C9.71551 32.9421 8.19702 48.7158 12.7835 56.4012C16.2853 62.2583 25.3343 69.7887 35.0341 66.8757C44.7338 63.9627 45.3226 51.4429 45.3226 51.4429C45.3226 51.4429 44.9197 56.4942 39.9304 60.213C35.6228 63.4359 29.394 62.94 25.2413 59.7481C23.7848 58.6325 22.5452 57.2689 21.7085 55.6265C20.5929 53.4262 20.314 50.9161 20.314 48.4989C20.283 45.9267 20.4379 43.3856 20.6549 40.8134C20.7788 39.4189 20.7478 37.9934 20.7168 36.5988C20.6548 33.8408 20.5309 31.0827 20.345 28.3556C20.128 25.0707 19.7871 21.7548 18.9814 18.5319C17.6489 13.2946 14.6739 8.36727 10.3663 5.05138C7.4223 2.78914 3.85848 1.36362 0.170715 0.836792Z" fill="url(#paint0_linear_706_3580)"/>
<defs>
<linearGradient id="paint0_linear_706_3580" x1="0.159063" y1="34.1911" x2="45.3213" y2="34.1911" gradientUnits="userSpaceOnUse">
<stop stop-color="#3A0F56"/>
<stop offset="1" stop-color="#86599C"/>
</linearGradient>
</defs>
</svg>
